<svg width="252.357421875" height="50.292744296256544" viewBox="0 -17 449.9230769230769 89.6659432187634" class="css-1j8o68f"><defs id="SvgjsDefs13666"></defs><g id="SvgjsG13667" featurekey="nYIUkx-0" transform="matrix(1.1271369632820611,0,0,1.1271369632820611,57.600325463218255,-37.933188249633034)" fill="#ff9300"><rect xmlns="http://www.w3.org/2000/svg" x="34.461" y="50.885" width="11.979" height="11.832"></rect><polygon xmlns="http://www.w3.org/2000/svg" points="56.547,44.036 31.082,18.572 16.332,33.318 16.332,28.184 7.568,28.184 7.568,42.084 2.129,47.522 3.23,48.624   31.082,20.774 55.901,45.594 97.674,45.594 97.674,44.036 "></polygon><polygon xmlns="http://www.w3.org/2000/svg" points="88.976,50.885 63.181,50.885 63.181,73.771 24.876,73.771 24.876,50.885 14.124,50.885 14.124,73.771 5.547,73.771   5.547,75.328 97.674,75.328 97.674,73.771 88.976,73.771 "></polygon></g><g id="SvgjsG13668" featurekey="PXhRQw-0" transform="matrix(1.8863970265824772,0,0,1.8863970265824772,199.11360308585554,2.0971976363928664)" fill="#121111"><path d="M8.28 20.16 c-2 0 -3.86 -0.78 -5.16 -2.06 c-0.64 -0.64 -1.16 -1.42 -1.54 -2.34 c-0.38 -0.94 -0.58 -1.94 -0.58 -3 c0 -1.08 0.2 -2.1 0.6 -3.04 s0.92 -1.74 1.58 -2.38 c1.34 -1.3 3.2 -2.08 5.16 -2.08 c1.54 0 2.94 0.46 3.88 1.12 c0.48 0.32 0.9 0.7 1.28 1.12 c0.74 0.86 1.14 1.72 1.36 2.56 l-1.46 0.52 c-0.12 -0.48 -0.32 -1 -0.86 -1.76 c-0.28 -0.38 -0.58 -0.72 -0.94 -1.02 s-0.82 -0.56 -1.4 -0.76 c-0.58 -0.22 -1.2 -0.32 -1.9 -0.32 c-1.52 0 -2.98 0.62 -4 1.64 c-1.04 1.04 -1.7 2.58 -1.7 4.3 c0 1.14 0.24 2.18 0.74 3.1 c0.48 0.92 1.16 1.64 2.06 2.16 c0.86 0.52 1.84 0.78 2.92 0.78 c1.34 0 2.5 -0.46 3.2 -1.02 c0.36 -0.28 0.68 -0.6 0.96 -1 c0.28 -0.38 0.48 -0.72 0.62 -1 c0.12 -0.28 0.24 -0.58 0.34 -0.88 l1.46 0.52 c-0.22 0.78 -0.6 1.58 -1.34 2.48 c-0.36 0.44 -0.8 0.84 -1.26 1.18 c-0.96 0.68 -2.42 1.18 -4.02 1.18 z M36.574 20 l-1.6 -3.72 l-7.94 0 l-1.6 3.72 l-1.56 0 l6.28 -14.58 l1.74 0 l6.3 14.58 l-1.62 0 z M34.394 14.879999999999999 l-3.4 -7.88 l-3.38 7.88 l6.78 0 z M53.908 20 l-5.44 0 l0 -14.58 l5.24 0 c2.64 -0.04 4.7 1.32 4.7 3.66 c0 0.34 -0.02 0.64 -0.2 1.2 c-0.08 0.28 -0.2 0.52 -0.36 0.76 c-0.3 0.48 -0.9 1.04 -1.66 1.38 c1.02 0.26 1.84 0.88 2.26 1.58 s0.6 1.4 0.6 2 c0 1.36 -0.58 2.42 -1.54 3.06 c-0.96 0.62 -2.2 0.94 -3.6 0.94 z M53.588 6.82 l-3.6 0 l0 5.08 l3.48 0 c1.14 0 1.98 -0.24 2.54 -0.74 s0.84 -1.12 0.84 -1.9 c0 -1.78 -1.6 -2.44 -3.26 -2.44 z M53.648 13.26 l-3.66 0 l0 5.34 l3.96 0 c1.58 0 3.54 -0.64 3.54 -2.7 c0 -1.26 -0.78 -1.96 -1.76 -2.3 c-0.68 -0.26 -1.34 -0.34 -2.08 -0.34 z M81.042 20 l-1.6 -3.72 l-7.94 0 l-1.6 3.72 l-1.56 0 l6.28 -14.58 l1.74 0 l6.3 14.58 l-1.62 0 z M78.862 14.879999999999999 l-3.4 -7.88 l-3.38 7.88 l6.78 0 z M100.51599999999999 3.6999999999999993 c-0.5 0 -0.98 -0.22 -1.26 -0.44 c-0.3 -0.24 -0.76 -0.46 -1.2 -0.46 c-0.4 0 -0.64 0.3 -0.74 0.9 l-1.04 0 c0 -0.64 0.14 -1.14 0.44 -1.56 c0.3 -0.4 0.74 -0.6 1.34 -0.6 c0.8 -0.04 1.74 0.94 2.46 0.9 c0.42 0 0.7 -0.28 0.82 -0.86 l0.92 0 c-0.02 0.62 -0.16 1.14 -0.44 1.54 c-0.28 0.38 -0.7 0.58 -1.3 0.58 z M92.93599999999999 20 l0 -14.58 l1.8 0 l8.6 12.26 l0 -12.26 l1.52 0 l0 14.58 l-1.68 0 l-8.7 -12.4 l0 12.4 l-1.54 0 z M127.83 20 l-1.6 -3.72 l-7.94 0 l-1.6 3.72 l-1.56 0 l6.28 -14.58 l1.74 0 l6.3 14.58 l-1.62 0 z M125.64999999999999 14.879999999999999 l-3.4 -7.88 l-3.38 7.88 l6.78 0 z"></path></g><g id="SvgjsG13669" featurekey="mlRtrp-0" transform="matrix(0.9677748371815781,0,0,0.9677748371815781,71.66715187583239,52.96071559921952)" fill="#ff9300"><path d="M14.463 10.3613 c-0.25391 -0.1237 -0.58916 -0.26372 -1.0059 -0.41997 s-0.88867 -0.30437 -1.416 -0.44434 s-1.1003 -0.25716 -1.7188 -0.35156 s-1.2532 -0.1416 -1.9043 -0.1416 c-0.52083 0 -0.96517 0.016279 -1.333 0.048828 s-0.67709 0.074863 -0.92774 0.12694 s-0.44922 0.1123 -0.5957 0.18066 s-0.25879 0.13835 -0.33691 0.20996 s-0.12858 0.14322 -0.15137 0.21483 s-0.03418 0.13672 -0.03418 0.19531 c0 0.19531 0.097656 0.36621 0.29297 0.5127 s0.46224 0.27669 0.80078 0.39063 s0.73242 0.22136 1.1816 0.32227 s0.9261 0.20508 1.4307 0.3125 s1.0254 0.22461 1.5625 0.35156 s1.0579 0.27507 1.5625 0.44434 s0.98145 0.36621 1.4307 0.59082 s0.8431 0.48665 1.1816 0.78613 s0.60547 0.64453 0.80078 1.0352 s0.29297 0.83659 0.29297 1.3379 c0 0.64453 -0.11394 1.1979 -0.3418 1.6602 s-0.53223 0.85286 -0.91309 1.1719 s-0.82194 0.57455 -1.3232 0.76661 s-1.0271 0.34018 -1.5771 0.44435 s-1.1067 0.17253 -1.6699 0.20508 s-1.0986 0.048828 -1.6064 0.048828 c-1.3281 0 -2.5569 -0.10905 -3.6865 -0.32715 s-2.1272 -0.4899 -2.9932 -0.81542 l0 -3.2031 c0.89192 0.49479 1.9092 0.88217 3.0518 1.1621 s2.3649 0.41992 3.667 0.41992 c0.76823 0 1.3948 -0.040693 1.8799 -0.12207 s0.86426 -0.18555 1.1377 -0.3125 s0.45898 -0.2653 0.55664 -0.41504 s0.14648 -0.29297 0.14648 -0.42969 c0 -0.21484 -0.097656 -0.40202 -0.29297 -0.56152 s-0.46224 -0.29947 -0.80078 -0.41991 s-0.73242 -0.23111 -1.1816 -0.33202 s-0.9261 -0.20182 -1.4307 -0.30272 s-1.0237 -0.20996 -1.5576 -0.32715 s-1.053 -0.25554 -1.5576 -0.41504 s-0.98145 -0.34505 -1.4307 -0.55664 s-0.8431 -0.46225 -1.1816 -0.75196 s-0.60547 -0.625 -0.80078 -1.0059 s-0.29297 -0.82194 -0.29297 -1.3232 c0 -0.59245 0.10417 -1.1035 0.3125 -1.5332 s0.4899 -0.7959 0.84472 -1.0986 s0.76497 -0.54851 1.2305 -0.7373 s0.95541 -0.33528 1.4697 -0.43945 s1.0352 -0.17578 1.5625 -0.21484 s1.0286 -0.058594 1.5039 -0.058594 c0.52083 0 1.0563 0.026045 1.6064 0.078125 s1.0921 0.12532 1.626 0.21973 s1.0498 0.20346 1.5479 0.32716 s0.95866 0.25391 1.3818 0.39063 l0 3.1055 z M44.703265625 17.4609 l-7.4805 0 l-1.2598 2.5391 l-4.043 0 l7.0215 -13.418 l4.043 0 l7.0215 13.418 l-4.043 0 z M38.521465625 14.8437 l4.9023 0 l-2.4414 -4.9414 z M79.796484375 20 l-9.0527 -9.2188 l0 9.2188 l-3.623 0 l0 -13.418 l3.9355 0 l9.0625 9.2578 l0 -9.2578 l3.6035 0 l0 13.418 l-3.9258 0 z M137.640734375 10.3613 c-0.25391 -0.1237 -0.58916 -0.26372 -1.0059 -0.41997 s-0.88867 -0.30437 -1.416 -0.44434 s-1.1003 -0.25716 -1.7188 -0.35156 s-1.2532 -0.1416 -1.9043 -0.1416 c-0.52083 0 -0.96517 0.016279 -1.333 0.048828 s-0.67709 0.074863 -0.92774 0.12694 s-0.44922 0.1123 -0.5957 0.18066 s-0.25879 0.13835 -0.33691 0.20996 s-0.12858 0.14322 -0.15137 0.21483 s-0.03418 0.13672 -0.03418 0.19531 c0 0.19531 0.097656 0.36621 0.29297 0.5127 s0.46224 0.27669 0.80078 0.39063 s0.73242 0.22136 1.1816 0.32227 s0.9261 0.20508 1.4307 0.3125 s1.0254 0.22461 1.5625 0.35156 s1.0579 0.27507 1.5625 0.44434 s0.98145 0.36621 1.4307 0.59082 s0.8431 0.48665 1.1816 0.78613 s0.60547 0.64453 0.80078 1.0352 s0.29297 0.83659 0.29297 1.3379 c0 0.64453 -0.11394 1.1979 -0.3418 1.6602 s-0.53223 0.85286 -0.91309 1.1719 s-0.82194 0.57455 -1.3232 0.76661 s-1.0271 0.34018 -1.5771 0.44435 s-1.1067 0.17253 -1.6699 0.20508 s-1.0986 0.048828 -1.6064 0.048828 c-1.3281 0 -2.5569 -0.10905 -3.6865 -0.32715 s-2.1272 -0.4899 -2.9932 -0.81542 l0 -3.2031 c0.89192 0.49479 1.9092 0.88217 3.0518 1.1621 s2.3649 0.41992 3.667 0.41992 c0.76823 0 1.3948 -0.040693 1.8799 -0.12207 s0.86426 -0.18555 1.1377 -0.3125 s0.45898 -0.2653 0.55664 -0.41504 s0.14648 -0.29297 0.14648 -0.42969 c0 -0.21484 -0.097656 -0.40202 -0.29297 -0.56152 s-0.46224 -0.29947 -0.80078 -0.41991 s-0.73242 -0.23111 -1.1816 -0.33202 s-0.9261 -0.20182 -1.4307 -0.30272 s-1.0237 -0.20996 -1.5576 -0.32715 s-1.053 -0.25554 -1.5576 -0.41504 s-0.98145 -0.34505 -1.4307 -0.55664 s-0.8431 -0.46225 -1.1816 -0.75196 s-0.60547 -0.625 -0.80078 -1.0059 s-0.29297 -0.82194 -0.29297 -1.3232 c0 -0.59245 0.10417 -1.1035 0.3125 -1.5332 s0.4899 -0.7959 0.84472 -1.0986 s0.76497 -0.54851 1.2305 -0.7373 s0.95541 -0.33528 1.4697 -0.43945 s1.0352 -0.17578 1.5625 -0.21484 s1.0286 -0.058594 1.5039 -0.058594 c0.52083 0 1.0563 0.026045 1.6064 0.078125 s1.0921 0.12532 1.626 0.21973 s1.0498 0.20346 1.5479 0.32716 s0.95866 0.25391 1.3818 0.39063 l0 3.1055 z M157.0996 20 l0 -13.418 l13.584 0 l0 2.8613 l-9.8633 0 l0 2.2168 l9.3555 0 l0 2.8613 l-9.3555 0 l0 2.6172 l10 0 l0 2.8613 l-13.721 0 z M204.536765625 16.2988 c0 0.52083 -0.068369 0.97333 -0.20509 1.3574 s-0.32715 0.71451 -0.57129 0.99121 s-0.53711 0.5013 -0.87891 0.67383 s-0.7194 0.30925 -1.1328 0.41016 s-0.85449 0.1709 -1.3232 0.20996 s-0.95378 0.058594 -1.4551 0.058594 l-9.7363 0 l0 -13.418 l9.5605 0 c0.38411 0 0.76985 0.016279 1.1572 0.048828 s0.75684 0.092773 1.1084 0.18066 s0.67871 0.20996 0.98145 0.36621 s0.56641 0.36133 0.79102 0.61523 s0.40039 0.55989 0.52734 0.91797 s0.19043 0.78125 0.19043 1.2695 c0 0.87239 -0.21484 1.5642 -0.64453 2.0752 s-1.1067 0.85123 -2.0313 1.0205 c0.65104 0.045576 1.2093 0.14486 1.6748 0.29786 s0.84473 0.36133 1.1377 0.625 s0.50781 0.58594 0.64453 0.9668 s0.20508 0.8252 0.20508 1.333 z M200.015765625 10.5566 c0 -0.16927 -0.026045 -0.3304 -0.078125 -0.4834 s-0.14648 -0.28809 -0.2832 -0.40527 s-0.32227 -0.21159 -0.55664 -0.2832 s-0.53386 -0.10742 -0.89844 -0.10742 l-5.3418 0 l0 2.5195 l5.3418 0 c0.36458 0 0.66406 -0.032549 0.89844 -0.097656 s0.41992 -0.153 0.55664 -0.26367 s0.23112 -0.24251 0.2832 -0.39551 s0.078125 -0.31413 0.078125 -0.4834 z M200.855765625 15.8789 c0 -0.30599 -0.05208 -0.55177 -0.15625 -0.73731 s-0.26693 -0.32878 -0.48829 -0.42969 s-0.50781 -0.16764 -0.85938 -0.20019 s-0.77148 -0.048828 -1.2598 -0.048828 l-5.2344 0 l0 2.8418 l5.2344 0 c0.48828 0 0.9082 -0.016279 1.2598 -0.048828 s0.63802 -0.10091 0.85938 -0.20508 s0.38412 -0.24902 0.48829 -0.43457 s0.15625 -0.43132 0.15625 -0.7373 z M233.53725 17.4609 l-7.4805 0 l-1.2598 2.5391 l-4.043 0 l7.0215 -13.418 l4.043 0 l7.0215 13.418 l-4.043 0 z M227.35545 14.8437 l4.9023 0 l-2.4414 -4.9414 z M268.31846875 10.3613 c-0.25391 -0.1237 -0.58916 -0.26372 -1.0059 -0.41997 s-0.88867 -0.30437 -1.416 -0.44434 s-1.1003 -0.25716 -1.7188 -0.35156 s-1.2532 -0.1416 -1.9043 -0.1416 c-0.52083 0 -0.96517 0.016279 -1.333 0.048828 s-0.67709 0.074863 -0.92774 0.12694 s-0.44922 0.1123 -0.5957 0.18066 s-0.25879 0.13835 -0.33691 0.20996 s-0.12858 0.14322 -0.15137 0.21483 s-0.03418 0.13672 -0.03418 0.19531 c0 0.19531 0.097656 0.36621 0.29297 0.5127 s0.46224 0.27669 0.80078 0.39063 s0.73242 0.22136 1.1816 0.32227 s0.9261 0.20508 1.4307 0.3125 s1.0254 0.22461 1.5625 0.35156 s1.0579 0.27507 1.5625 0.44434 s0.98145 0.36621 1.4307 0.59082 s0.8431 0.48665 1.1816 0.78613 s0.60547 0.64453 0.80078 1.0352 s0.29297 0.83659 0.29297 1.3379 c0 0.64453 -0.11394 1.1979 -0.3418 1.6602 s-0.53223 0.85286 -0.91309 1.1719 s-0.82194 0.57455 -1.3232 0.76661 s-1.0271 0.34018 -1.5771 0.44435 s-1.1067 0.17253 -1.6699 0.20508 s-1.0986 0.048828 -1.6064 0.048828 c-1.3281 0 -2.5569 -0.10905 -3.6865 -0.32715 s-2.1272 -0.4899 -2.9932 -0.81542 l0 -3.2031 c0.89192 0.49479 1.9092 0.88217 3.0518 1.1621 s2.3649 0.41992 3.667 0.41992 c0.76823 0 1.3948 -0.040693 1.8799 -0.12207 s0.86426 -0.18555 1.1377 -0.3125 s0.45898 -0.2653 0.55664 -0.41504 s0.14648 -0.29297 0.14648 -0.42969 c0 -0.21484 -0.097656 -0.40202 -0.29297 -0.56152 s-0.46224 -0.29947 -0.80078 -0.41991 s-0.73242 -0.23111 -1.1816 -0.33202 s-0.9261 -0.20182 -1.4307 -0.30272 s-1.0237 -0.20996 -1.5576 -0.32715 s-1.053 -0.25554 -1.5576 -0.41504 s-0.98145 -0.34505 -1.4307 -0.55664 s-0.8431 -0.46225 -1.1816 -0.75196 s-0.60547 -0.625 -0.80078 -1.0059 s-0.29297 -0.82194 -0.29297 -1.3232 c0 -0.59245 0.10417 -1.1035 0.3125 -1.5332 s0.4899 -0.7959 0.84472 -1.0986 s0.76497 -0.54851 1.2305 -0.7373 s0.95541 -0.33528 1.4697 -0.43945 s1.0352 -0.17578 1.5625 -0.21484 s1.0286 -0.058594 1.5039 -0.058594 c0.52083 0 1.0563 0.026045 1.6064 0.078125 s1.0921 0.12532 1.626 0.21973 s1.0498 0.20346 1.5479 0.32716 s0.95866 0.25391 1.3818 0.39063 l0 3.1055 z M295.296834375 9.502 l0 10.498 l-3.623 0 l0 -10.498 l-5.6934 0 l0 -2.9199 l15.02 0 l0 2.9199 l-5.7031 0 z M318.3105375 20 l0 -13.418 l3.623 0 l0 13.418 l-3.623 0 z M351.832171875 17.4609 l-7.4805 0 l-1.2598 2.5391 l-4.043 0 l7.0215 -13.418 l4.043 0 l7.0215 13.418 l-4.043 0 z M345.650371875 14.8437 l4.9023 0 l-2.4414 -4.9414 z M386.925390625 20 l-9.0527 -9.2188 l0 9.2188 l-3.623 0 l0 -13.418 l3.9355 0 l9.0625 9.2578 l0 -9.2578 l3.6035 0 l0 13.418 l-3.9258 0 z"></path></g></svg>